<svg xmlns="http://www.w3.org/2000/svg" viewBox="0 0 52 52"><path d="M22.815 12.629c1.38-.695 3.827-2.66 5.256-1.31 1 .943 1.763 3.9.511 4.822-1.274.939-3.396 1.063-4.541-.007-1.101-1.028-1.557-3.4-.506-4.714.995-1.244-.763-3.025-1.768-1.767-1.736 2.172-1.828 5.898.167 7.92 1.096 1.11 2.358 1.936 3.976 1.862 1.406-.065 3.143-.55 4.302-1.374 2.591-1.838 1.477-6.05-.13-8.2-2.354-3.145-5.834-.747-8.529.61-1.437.723-.173 2.88 1.262 2.158z"/><path d="M22.81 11.698c1.609 0 1.611-2.5 0-2.5-1.608 0-1.611 2.5 0 2.5zM17.496 35.272c.196-1.757-.013-3.475.097-5.213.24-3.792 3.665-5.134 7.026-5.288 1.808-.083 3.666.062 5.473.146 2.79.129 4.097.742 4.869 3.666.48 1.818 1.46 4.673-.667 5.4-1.358.465-3.567.076-5.002.1-2.001.035-4.003.071-6.005.096-1.631.02-4.474.587-5.965-.119-1.446-.685-2.716 1.47-1.261 2.159 2.529 1.197 6.018.48 8.753.439 3.538-.052 7.695.452 11.163-.266 4.17-.864 1.822-8.916.39-11.392-.942-1.633-2.34-2.25-4.166-2.508-3.088-.436-6.881-.515-9.962.025-2.49.438-4.998 1.65-6.3 3.925-1.49 2.607-.625 5.974-.943 8.83-.178 1.596 2.323 1.584 2.5 0zM45.433 4.455c.107.962.108 1.905-.128 2.85-.134.535-.35 1.034-.544 1.548-.066.177-.304.995-.368 1.04-.295.206-1.809-.164-2.195-.201-.97-.094-1.913-.133-2.886-.056-1.593.128-1.607 2.629 0 2.5 1.419-.113 2.789.07 4.2.193.96.084 2.022.126 2.73-.664.69-.772 1.018-2.22 1.322-3.182.416-1.313.521-2.664.37-4.028-.177-1.581-2.679-1.6-2.5 0z"/><path d="M45.28 8.148C39.024 4.273 33.946.87 26.349.693 20.22.55 13.965 1.805 9.544 6.32 5.35 10.604 2.084 17.392.683 23.182c-1.64 6.776 1.55 12.219 5.12 17.794 3.655 5.71 9.277 7.34 15.589 9.333 6.607 2.086 13.66.842 19.558-2.854 5.268-3.3 8.665-10.4 10.251-16.222 1.984-7.28-1.772-13.673-4.152-20.356-.536-1.505-2.953-.856-2.411.665 1.72 4.828 4.682 9.866 4.715 15.117.034 5.482-3.556 12.826-7.333 16.773-9.095 9.507-28.586 5.433-34.892-5.072-3.16-5.265-5.431-9.848-3.572-16.1C4.942 17.6 7.81 11.558 11.312 8.088c4.203-4.163 10.13-5.148 15.844-4.858 6.695.34 11.367 3.675 16.863 7.078 1.371.85 2.628-1.313 1.262-2.159z"/><path d="M10.822 38.197l.297 6.248c.076 1.602 2.577 1.611 2.5 0l-.297-6.248c-.076-1.601-2.577-1.61-2.5 0z"/><path d="M12.31 45.948c1.609 0 1.611-2.5 0-2.5-1.608 0-1.611 2.5 0 2.5z"/><path d="M5.71 47.126c1.907.19 3.8.347 5.708.113 1.577-.193 1.596-2.696 0-2.5-1.908.234-3.802.076-5.707-.113-1.6-.159-1.589 2.342 0 2.5z"/></svg>